<svg width="167" height="60" viewBox="0 0 167 60" fill="none" xmlns="http://www.w3.org/2000/svg">
<path d="M8.38344 25.08C9.10344 24.0133 10.0901 23.1467 11.3434 22.48C12.6234 21.8133 14.0768 21.48 15.7034 21.48C17.5968 21.48 19.3034 21.9467 20.8234 22.88C22.3701 23.8133 23.5834 25.1467 24.4634 26.88C25.3701 28.5867 25.8234 30.5733 25.8234 32.84C25.8234 35.1067 25.3701 37.12 24.4634 38.88C23.5834 40.6133 22.3701 41.96 20.8234 42.92C19.3034 43.88 17.5968 44.36 15.7034 44.36C14.0501 44.36 12.5968 44.04 11.3434 43.4C10.1168 42.7333 9.1301 41.88 8.38344 40.84V44H2.78344V14.4H8.38344V25.08ZM20.1034 32.84C20.1034 31.5067 19.8234 30.36 19.2634 29.4C18.7301 28.4133 18.0101 27.6667 17.1034 27.16C16.2234 26.6533 15.2634 26.4 14.2234 26.4C13.2101 26.4 12.2501 26.6667 11.3434 27.2C10.4634 27.7067 9.74344 28.4533 9.18344 29.44C8.6501 30.4267 8.38344 31.5867 8.38344 32.92C8.38344 34.2533 8.6501 35.4133 9.18344 36.4C9.74344 37.3867 10.4634 38.1467 11.3434 38.68C12.2501 39.1867 13.2101 39.44 14.2234 39.44C15.2634 39.44 16.2234 39.1733 17.1034 38.64C18.0101 38.1067 18.7301 37.3467 19.2634 36.36C19.8234 35.3733 20.1034 34.2 20.1034 32.84ZM39.7328 44.36C37.5995 44.36 35.6795 43.8933 33.9728 42.96C32.2661 42 30.9195 40.6533 29.9328 38.92C28.9728 37.1867 28.4928 35.1867 28.4928 32.92C28.4928 30.6533 28.9861 28.6533 29.9728 26.92C30.9861 25.1867 32.3595 23.8533 34.0928 22.92C35.8261 21.96 37.7595 21.48 39.8928 21.48C42.0261 21.48 43.9595 21.96 45.6928 22.92C47.4261 23.8533 48.7861 25.1867 49.7728 26.92C50.7861 28.6533 51.2928 30.6533 51.2928 32.92C51.2928 35.1867 50.7728 37.1867 49.7328 38.92C48.7195 40.6533 47.3328 42 45.5728 42.96C43.8395 43.8933 41.8928 44.36 39.7328 44.36ZM39.7328 39.48C40.7461 39.48 41.6928 39.24 42.5728 38.76C43.4795 38.2533 44.1995 37.5067 44.7328 36.52C45.2661 35.5333 45.5328 34.3333 45.5328 32.92C45.5328 30.8133 44.9728 29.2 43.8528 28.08C42.7595 26.9333 41.4128 26.36 39.8128 26.36C38.2128 26.36 36.8661 26.9333 35.7728 28.08C34.7061 29.2 34.1728 30.8133 34.1728 32.92C34.1728 35.0267 34.6928 36.6533 35.7328 37.8C36.7995 38.92 38.1328 39.48 39.7328 39.48ZM65.2406 44.36C63.1073 44.36 61.1873 43.8933 59.4806 42.96C57.774 42 56.4273 40.6533 55.4406 38.92C54.4806 37.1867 54.0006 35.1867 54.0006 32.92C54.0006 30.6533 54.494 28.6533 55.4806 26.92C56.494 25.1867 57.8673 23.8533 59.6006 22.92C61.334 21.96 63.2673 21.48 65.4006 21.48C67.534 21.48 69.4673 21.96 71.2006 22.92C72.934 23.8533 74.294 25.1867 75.2806 26.92C76.294 28.6533 76.8006 30.6533 76.8006 32.92C76.8006 35.1867 76.2806 37.1867 75.2406 38.92C74.2273 40.6533 72.8406 42 71.0806 42.96C69.3473 43.8933 67.4006 44.36 65.2406 44.36ZM65.2406 39.48C66.254 39.48 67.2006 39.24 68.0806 38.76C68.9873 38.2533 69.7073 37.5067 70.2406 36.52C70.774 35.5333 71.0406 34.3333 71.0406 32.92C71.0406 30.8133 70.4806 29.2 69.3606 28.08C68.2673 26.9333 66.9206 26.36 65.3206 26.36C63.7206 26.36 62.374 26.9333 61.2806 28.08C60.214 29.2 59.6806 30.8133 59.6806 32.92C59.6806 35.0267 60.2006 36.6533 61.2406 37.8C62.3073 38.92 63.6406 39.48 65.2406 39.48ZM79.4684 32.88C79.4684 30.6667 79.9218 28.7067 80.8284 27C81.7618 25.2667 83.0151 23.92 84.5884 22.96C86.1618 22 87.8951 21.52 89.7884 21.52C91.3618 21.52 92.7484 21.8267 93.9484 22.44C95.1751 23.0267 96.1618 23.7867 96.9084 24.72V21.84H102.548V54.56H96.9084V40.96C96.1618 41.92 95.1618 42.72 93.9084 43.36C92.6551 44 91.2418 44.32 89.6684 44.32C87.8018 44.32 86.0818 43.84 84.5084 42.88C82.9618 41.8933 81.7351 40.5333 80.8284 38.8C79.9218 37.0667 79.4684 35.0933 79.4684 32.88ZM96.9084 32.92C96.9084 31.56 96.6284 30.3867 96.0684 29.4C95.5084 28.4133 94.7751 27.6667 93.8684 27.16C92.9884 26.6533 92.0418 26.4 91.0284 26.4C90.0418 26.4 89.0951 26.6533 88.1884 27.16C87.3084 27.6667 86.5884 28.4133 86.0284 29.4C85.4684 30.36 85.1884 31.52 85.1884 32.88C85.1884 34.24 85.4684 35.4267 86.0284 36.44C86.5884 37.4267 87.3084 38.1733 88.1884 38.68C89.0951 39.1867 90.0418 39.44 91.0284 39.44C92.0418 39.44 92.9884 39.1867 93.8684 38.68C94.7751 38.1733 95.5084 37.4267 96.0684 36.44C96.6284 35.4533 96.9084 34.28 96.9084 32.92ZM113.618 14.4V44H108.018V14.4H113.618ZM139.751 32.44C139.751 33.24 139.697 33.96 139.591 34.6H123.391C123.524 36.2 124.084 37.4533 125.071 38.36C126.057 39.2667 127.271 39.72 128.711 39.72C130.791 39.72 132.271 38.8267 133.151 37.04H139.191C138.551 39.1733 137.324 40.9333 135.511 42.32C133.697 43.68 131.471 44.36 128.831 44.36C126.697 44.36 124.777 43.8933 123.071 42.96C121.391 42 120.071 40.6533 119.111 38.92C118.177 37.1867 117.711 35.1867 117.711 32.92C117.711 30.6267 118.177 28.6133 119.111 26.88C120.044 25.1467 121.351 23.8133 123.031 22.88C124.711 21.9467 126.644 21.48 128.831 21.48C130.937 21.48 132.817 21.9333 134.471 22.84C136.151 23.7467 137.444 25.04 138.351 26.72C139.284 28.3733 139.751 30.28 139.751 32.44ZM133.951 30.84C133.924 29.4 133.404 28.2533 132.391 27.4C131.377 26.52 130.137 26.08 128.671 26.08C127.284 26.08 126.111 26.5067 125.151 27.36C124.217 28.1867 123.644 29.3467 123.431 30.84H133.951ZM150.358 26.44V37.16C150.358 37.9067 150.531 38.4533 150.878 38.8C151.251 39.12 151.865 39.28 152.718 39.28H155.318V44H151.798C147.078 44 144.718 41.7067 144.718 37.12V26.44H142.078V21.84H144.718V16.36H150.358V21.84H155.318V26.44H150.358ZM161.826 44.28C160.813 44.28 159.973 43.9733 159.306 43.36C158.666 42.72 158.346 41.9333 158.346 41C158.346 40.0667 158.666 39.2933 159.306 38.68C159.973 38.04 160.813 37.72 161.826 37.72C162.813 37.72 163.626 38.04 164.266 38.68C164.906 39.2933 165.226 40.0667 165.226 41C165.226 41.9333 164.906 42.72 164.266 43.36C163.626 43.9733 162.813 44.28 161.826 44.28Z" fill="white"/>
<path d="M2 53L91 53" stroke="#6C6C6C" stroke-width="5"/>
<path d="M108 53H164" stroke="#6C6C6C" stroke-width="5"/>
</svg>
